<svg xmlns="http://www.w3.org/2000/svg" viewBox="80.309 86.621 152.635 128.061"><defs><style>.a{fill:#4eae4a;}.b{fill:#36a2c8;}</style></defs><path class="a" d="M152.606,84.621H112.039s-31.975,16.26-31.729,63.355,30.61,64.706,30.61,64.706H154.3V95.388l-45.424,38.8h21.956V195.3s-9.631,2.867-17.414-4.2c-9.064-8.225-16.427-27.843-15.173-47.369,2.318-36.091,20.525-41.748,20.525-41.748h14.209Z" transform="translate(0 2)"/><path class="b" d="M82,84.621h40.567s31.976,16.26,31.729,63.355-30.611,64.706-30.611,64.706H80.309V95.388l45.425,38.8H103.778V195.3s9.631,2.867,17.414-4.2c9.064-8.225,16.427-27.843,15.173-47.369-2.318-36.091-20.525-41.748-20.525-41.748H101.631Z" transform="translate(78.646 2)"/></svg>